<svg xmlns="http://www.w3.org/2000/svg" viewBox="0 0 113.44 24.45"><defs><style>.cls-1{font-size:4.88px;font-family:Groteska-Bold, Groteska Bold;font-weight:700;letter-spacing:0.02em;}.cls-1,.cls-2{fill:#1d1d1b;}.cls-2{stroke:#1d1d1b;stroke-miterlimit:10;stroke-width:0.5px;}</style></defs><g id="Capa_2" data-name="Capa 2"><g id="Capa_1-2" data-name="Capa 1"><text class="cls-1" transform="translate(24.77 23.23)">INGENIERÍA Y CONSTRUCCIÓN</text><path class="cls-2" d="M3.55,12.87C-6.35,5.8,8.78-6.22,13.09,6H10.71C9.05,1.17,2.32,2.66,2.64,7.17c-.32,4.92,7.31,5.95,8.3,1.28h2.3C12.75,12.83,7.27,15.07,3.55,12.87Z"/><path class="cls-2" d="M18.66,12.87c-7.25-4.21-.73-15.78,6.63-11.41S26,17.22,18.66,12.87Zm5.48-1.94c4.74-2.79.47-10.42-4.37-7.52C15.1,6.22,19.3,13.8,24.14,10.93Z"/><path class="cls-2" d="M32.83,5.33l0,8H30.39V1.12h1.75l5.57,8v-8h2.45V13.33H38.4Z"/><path class="cls-2" d="M54.09,1.12h2.52l-6.79,12.8L43,1.12h2.56l4.23,8Z"/><path class="cls-2" d="M68.23,10.89v2.44H58.47V1.12h9.76V3.57H60.91V6H67V8.45h-6.1v2.44Z"/><path class="cls-2" d="M74.28,12.87C64.38,5.8,79.51-6.22,83.83,6H81.45c-1.67-4.84-8.39-3.35-8.08,1.16-.32,4.92,7.31,5.95,8.31,1.28H84C83.49,12.83,78,15.07,74.28,12.87Z"/><path class="cls-2" d="M88.47,12a5.67,5.67,0,0,1-2-3.53h2.35c-.26,3.51,9.06,3.16,5.91.15C92.75,7.77,88.76,8,87.48,6c-2.77-6.56,9.27-7.77,10.3-1.25H95.44c-1.56-5.17-11.24.13-2.77,1.06C103.14,7.34,94.7,16.67,88.47,12Z"/><path class="cls-2" d="M106.75,5.29l-4.74,8H99.45L106.24.53,113,13.33H110.5Z"/></g></g></svg>