<svg width="481" height="437" viewBox="0 0 481 437" fill="none" xmlns="http://www.w3.org/2000/svg">
<path d="M481 334.218H0V334.436H481V334.218Z" fill="#EBEBEB"/>
<path d="M432.804 348.28H400.942V348.499H432.804V348.28Z" fill="#EBEBEB"/>
<path d="M318.634 350.658H310.274V350.876H318.634V350.658Z" fill="#EBEBEB"/>
<path d="M399.98 340.17H381.52V340.388H399.98V340.17Z" fill="#EBEBEB"/>
<path d="M92.0151 341.638H50.4663V341.856H92.0151V341.638Z" fill="#EBEBEB"/>
<path d="M106.676 341.638H100.587V341.856H106.676V341.638Z" fill="#EBEBEB"/>
<path d="M216.594 345.326H126.474V345.545H216.594V345.326Z" fill="#EBEBEB"/>
<path d="M227.994 295.237H42.2412C40.786 295.235 39.3913 294.708 38.3633 293.772C37.3352 292.837 36.7578 291.569 36.7578 290.247V53.0169C36.7705 51.7024 37.3535 50.4456 38.3802 49.5194C39.4069 48.5931 40.7943 48.0723 42.2412 48.0701H227.994C229.451 48.0701 230.848 48.5959 231.878 49.5318C232.908 50.4677 233.487 51.737 233.487 53.0606V290.247C233.487 291.57 232.908 292.84 231.878 293.776C230.848 294.711 229.451 295.237 227.994 295.237ZM42.2412 48.2449C40.8498 48.2472 39.5163 48.751 38.5333 49.6457C37.5504 50.5403 36.9983 51.7528 36.9983 53.0169V290.247C36.9983 291.511 37.5504 292.723 38.5333 293.618C39.5163 294.513 40.8498 295.016 42.2412 295.019H227.994C229.386 295.016 230.721 294.513 231.705 293.618C232.69 292.724 233.244 291.512 233.246 290.247V53.0169C233.244 51.752 232.69 50.5395 231.705 49.6451C230.721 48.7507 229.386 48.2472 227.994 48.2449H42.2412Z" fill="#EBEBEB"/>
<path d="M436.084 295.237H250.322C248.866 295.235 247.47 294.708 246.441 293.773C245.411 292.838 244.832 291.57 244.829 290.247V53.0169C244.844 51.7016 245.429 50.4448 246.458 49.5188C247.486 48.5928 248.874 48.0723 250.322 48.0701H436.084C437.53 48.0746 438.915 48.5964 439.939 49.5224C440.964 50.4484 441.545 51.7039 441.558 53.0169V290.247C441.558 291.567 440.982 292.834 439.956 293.769C438.93 294.705 437.538 295.233 436.084 295.237ZM250.322 48.2449C248.93 48.2472 247.595 48.7507 246.611 49.6451C245.626 50.5395 245.072 51.752 245.07 53.0169V290.247C245.072 291.512 245.626 292.724 246.611 293.618C247.595 294.513 248.93 295.016 250.322 295.019H436.084C437.477 295.016 438.811 294.513 439.796 293.618C440.78 292.724 441.334 291.512 441.337 290.247V53.0169C441.334 51.752 440.78 50.5395 439.796 49.6451C438.811 48.7507 437.477 48.2472 436.084 48.2449H250.322Z" fill="#EBEBEB"/>
<path d="M143.752 173.48H137.277V334.436H143.752V173.48Z" fill="#F5F5F5"/>
<path d="M169.35 193.915H162.876V334.436H169.35V193.915Z" fill="#F5F5F5"/>
<path d="M194.709 214.349H188.234V334.436H194.709V214.349Z" fill="#F5F5F5"/>
<path d="M220.077 200.723H213.603V334.436H220.077V200.723Z" fill="#F5F5F5"/>
<path d="M245.444 193.915H238.97V334.436H245.444V193.915Z" fill="#F5F5F5"/>
<path d="M270.803 180.289H264.329V334.436H270.803V180.289Z" fill="#F5F5F5"/>
<path d="M296.171 187.106H289.697V334.436H296.171V187.106Z" fill="#F5F5F5"/>
<path d="M321.539 180.289H315.064V334.436H321.539V180.289Z" fill="#F5F5F5"/>
<path d="M346.897 166.663H340.423V334.427H346.897V166.663Z" fill="#F5F5F5"/>
<path d="M372.265 153.046H365.791V334.436H372.265V153.046Z" fill="#F5F5F5"/>
<path d="M397.624 139.421H391.149V334.436H397.624V139.421Z" fill="#F5F5F5"/>
<path d="M191.438 204.778C191.077 204.765 190.734 204.631 190.476 204.402L136.277 156.394C136.003 156.15 135.846 155.818 135.841 155.469C135.837 155.121 135.985 154.785 136.253 154.536C136.521 154.287 136.887 154.145 137.27 154.141C137.653 154.137 138.023 154.271 138.297 154.514L191.621 201.754L266.724 151.936C267.015 151.748 267.371 151.663 267.726 151.699C268.081 151.734 268.409 151.887 268.648 152.128L293.237 177.422L395.016 124.44C395.181 124.355 395.363 124.299 395.551 124.278C395.74 124.256 395.931 124.268 396.114 124.314C396.297 124.359 396.469 124.437 396.619 124.543C396.769 124.648 396.894 124.78 396.988 124.93C397.083 125.079 397.143 125.244 397.167 125.416C397.191 125.587 397.177 125.76 397.127 125.927C397.077 126.093 396.992 126.249 396.876 126.385C396.759 126.522 396.615 126.636 396.45 126.721L293.65 180.245C293.362 180.393 293.026 180.447 292.698 180.398C292.371 180.349 292.072 180.199 291.851 179.974L267.359 154.803L192.323 204.525C192.067 204.695 191.756 204.785 191.438 204.778Z" fill="#F0F0F0"/>
<path d="M185.329 333.431L138.028 163.954L140.394 155.485H137.931V107.083H131.582V155.485H129.119L131.486 163.954L84.1748 333.431H90.726L131.582 187.054V334.323H137.931V187.054L178.788 333.431H185.329Z" fill="#E0E0E0"/>
<path d="M170.398 162.27C175.044 144.385 162.852 126.464 143.166 122.243C123.481 118.022 103.756 129.099 99.1095 146.984C94.4633 164.868 106.655 182.789 126.341 187.01C146.026 191.231 165.751 180.155 170.398 162.27Z" fill="#E6E6E6"/>
<path d="M134.757 183.042C152.024 183.042 166.022 170.325 166.022 154.637C166.022 138.949 152.024 126.232 134.757 126.232C117.49 126.232 103.492 138.949 103.492 154.637C103.492 170.325 117.49 183.042 134.757 183.042Z" fill="#F5F5F5"/>
<path d="M134.757 176.871C148.273 176.871 159.23 166.917 159.23 154.637C159.23 142.357 148.273 132.402 134.757 132.402C121.241 132.402 110.284 142.357 110.284 154.637C110.284 166.917 121.241 176.871 134.757 176.871Z" fill="#E6E6E6"/>
<path d="M142.438 171.469C152.672 167.618 157.532 156.958 153.293 147.66C149.054 138.361 137.32 133.946 127.086 137.797C116.852 141.649 111.992 152.309 116.231 161.607C120.47 170.905 132.203 175.32 142.438 171.469Z" fill="#F5F5F5"/>
<path d="M148.302 157.532C150.068 150.734 145.434 143.923 137.951 142.318C130.469 140.714 122.972 144.924 121.206 151.722C119.44 158.52 124.074 165.331 131.556 166.935C139.038 168.54 146.536 164.33 148.302 157.532Z" fill="#E6E6E6"/>
<path d="M138.587 163.023C143.687 161.103 146.109 155.791 143.996 151.158C141.884 146.524 136.037 144.324 130.937 146.243C125.837 148.163 123.415 153.475 125.528 158.108C127.64 162.742 133.487 164.942 138.587 163.023Z" fill="#F5F5F5"/>
<path d="M139.288 154.637C139.288 155.453 139.021 156.251 138.522 156.93C138.023 157.608 137.313 158.137 136.483 158.449C135.652 158.761 134.739 158.842 133.858 158.682C132.977 158.522 132.168 158.129 131.533 157.551C130.898 156.973 130.467 156.237 130.293 155.436C130.119 154.636 130.21 153.806 130.555 153.052C130.9 152.299 131.484 151.655 132.232 151.203C132.98 150.75 133.858 150.51 134.757 150.512C135.353 150.512 135.943 150.618 136.493 150.826C137.043 151.033 137.543 151.337 137.964 151.721C138.385 152.104 138.719 152.559 138.946 153.059C139.173 153.559 139.289 154.096 139.288 154.637Z" fill="#E6E6E6"/>
<path d="M87.7535 127.193L88.7444 133.206L81.8564 135.313L88.7444 138.599L95.6131 136.405L94.4106 130.48L87.7535 127.193Z" fill="#E6E6E6"/>
<path d="M134.757 155.511C134.603 155.509 134.452 155.476 134.314 155.415L85.0312 132.464C84.8119 132.354 84.6481 132.171 84.5746 131.954C84.5012 131.737 84.5238 131.502 84.6377 131.3C84.7516 131.097 84.9478 130.943 85.1847 130.87C85.4216 130.797 85.6805 130.81 85.9066 130.908L135.19 153.824C135.416 153.929 135.588 154.111 135.667 154.33C135.747 154.55 135.727 154.789 135.613 154.995C135.539 155.146 135.419 155.274 135.267 155.366C135.116 155.457 134.939 155.507 134.757 155.511Z" fill="#E0E0E0"/>
<path d="M202.578 117.256C202.574 116.053 202.88 114.867 203.472 113.791C204.064 112.716 204.926 111.782 205.988 111.064C207.05 110.346 208.283 109.865 209.587 109.66C210.892 109.454 212.231 109.529 213.497 109.879C213.121 107.56 213.299 105.195 214.02 102.944C214.741 100.694 215.988 98.6107 217.675 96.8373C219.362 95.0639 221.451 93.6417 223.797 92.6678C226.144 91.6938 228.695 91.1909 231.275 91.1933C232.382 91.193 233.486 91.2866 234.574 91.473C236.345 88.8296 239.013 86.781 242.178 85.6362C245.342 84.4913 248.83 84.3124 252.116 85.1263C255.402 85.9402 258.307 87.7029 260.394 90.1484C262.481 92.5938 263.636 95.5895 263.684 98.6835H263.954C267.791 98.6835 271.471 100.068 274.185 102.534C276.898 104.999 278.422 108.342 278.422 111.828C278.422 115.315 276.898 118.658 274.185 121.123C271.471 123.589 267.791 124.973 263.954 124.973H210.813C208.604 124.916 206.506 124.078 204.968 122.636C203.43 121.194 202.572 119.264 202.578 117.256Z" fill="#F0F0F0"/>
<path d="M353.506 113.026C353.506 112.041 353.937 111.096 354.704 110.399C355.47 109.703 356.51 109.311 357.595 109.311C357.992 109.314 358.387 109.367 358.768 109.469C358.707 109.092 358.675 108.713 358.672 108.332C358.671 107.176 358.951 106.034 359.492 104.987C360.032 103.94 360.82 103.015 361.8 102.276C362.779 101.538 363.925 101.004 365.157 100.714C366.389 100.424 367.676 100.384 368.927 100.597C369.784 99.3265 371.072 98.3428 372.598 97.7945C374.123 97.2462 375.804 97.163 377.386 97.5574C378.968 97.9517 380.366 98.8023 381.37 99.9811C382.374 101.16 382.93 102.603 382.953 104.093H383.078C384.928 104.093 386.702 104.761 388.01 105.949C389.318 107.138 390.052 108.749 390.052 110.43C390.052 112.11 389.318 113.722 388.01 114.911C386.702 116.099 384.928 116.766 383.078 116.766H357.479C356.409 116.741 355.393 116.335 354.65 115.635C353.906 114.935 353.496 113.998 353.506 113.026Z" fill="#F0F0F0"/>
<path d="M91.1205 117.649C91.1205 117.321 91.1917 116.997 91.3301 116.694C91.4685 116.391 91.6713 116.116 91.9269 115.885C92.1825 115.653 92.4859 115.47 92.8196 115.345C93.1534 115.221 93.5109 115.157 93.8718 115.158C94.139 115.158 94.4048 115.193 94.6606 115.263C94.6187 115.008 94.5962 114.751 94.5933 114.494C94.6059 113.107 95.218 111.78 96.2978 110.799C97.3775 109.818 98.8384 109.261 100.365 109.25C100.727 109.251 101.088 109.284 101.443 109.346C102.014 108.487 102.878 107.82 103.903 107.447C104.929 107.074 106.06 107.015 107.126 107.279C108.192 107.542 109.135 108.115 109.81 108.909C110.486 109.703 110.858 110.676 110.87 111.68H110.957C112.164 111.729 113.303 112.2 114.138 112.994C114.973 113.787 115.439 114.843 115.439 115.94C115.439 117.038 114.973 118.094 114.138 118.887C113.303 119.681 112.164 120.152 110.957 120.201H93.7948C93.4348 120.193 93.0799 120.121 92.7506 119.988C92.4213 119.856 92.124 119.666 91.8756 119.429C91.6273 119.192 91.4328 118.912 91.3032 118.607C91.1736 118.302 91.1115 117.976 91.1205 117.649Z" fill="#F0F0F0"/>
<path d="M240.5 373.688C343.514 373.688 427.022 369.258 427.022 363.794C427.022 358.33 343.514 353.9 240.5 353.9C137.487 353.9 53.978 358.33 53.978 363.794C53.978 369.258 137.487 373.688 240.5 373.688Z" fill="#F5F5F5"/>
<path d="M133.122 197.14L139.721 193.714C139.721 193.714 142.261 190.156 143.021 189.99C143.781 189.824 152.15 189.99 152.15 189.99C152.15 189.99 150.89 194.92 150.755 195.89C150.62 196.86 142.636 195.89 142.636 195.89L136.171 199.386L133.122 197.14Z" fill="#EBB376"/>
<path d="M71.6594 356.592L64.7522 355.342C64.6289 355.342 64.5091 355.38 64.4128 355.45C64.3165 355.52 64.2495 355.617 64.2231 355.727L62.3665 362.002C62.3273 362.217 62.3776 362.437 62.5075 362.619C62.6373 362.802 62.8374 362.934 63.0687 362.99H63.2707C65.7142 362.99 67.4939 362.815 70.5531 362.815C72.4771 362.815 78.1336 362.999 80.7407 362.999C83.3477 362.999 83.694 360.656 82.6647 360.446C77.8547 359.494 74.276 358.183 72.7464 356.95C72.4502 356.706 72.0595 356.577 71.6594 356.592Z" fill="#263238"/>
<path d="M156.191 356.382H148.649C148.525 356.38 148.404 356.417 148.307 356.487C148.211 356.558 148.144 356.657 148.119 356.767L146.888 361.836C146.852 362.05 146.905 362.269 147.036 362.45C147.168 362.631 147.369 362.761 147.6 362.815H147.802C150.245 362.771 152.016 362.64 155.084 362.64C157.008 362.64 162.665 362.815 165.272 362.815C167.879 362.815 168.216 360.481 167.148 360.263C162.338 359.319 158.759 357.999 157.23 356.767C157.094 356.643 156.932 356.544 156.753 356.478C156.575 356.412 156.383 356.38 156.191 356.382Z" fill="#263238"/>
<path d="M84.9736 240.936L116.912 233.577C124.156 247.945 150.736 306.94 157.181 356.024L146.368 358.515C146.368 358.515 127.225 286.13 111.169 264.997C111.169 264.997 110.313 297.125 108.572 301.801C107.138 305.647 74.2666 357.099 74.2666 357.099L63.5884 356.007C63.5884 356.007 90.4282 303.497 92.0059 296.95C93.1218 292.493 88.2348 259.753 88.2348 259.753C87.3786 256.834 86.0896 244.746 86.0896 244.746C86.0896 244.746 85.1276 241.539 84.9736 240.936Z" fill="#868CB7"/>
<path opacity="0.2" d="M111.179 265.014C113.889 268.739 116.254 272.663 118.249 276.743C116.037 265.434 109.178 254.483 109.178 254.483L111.179 265.014Z" fill="black"/>
<path opacity="0.3" d="M84.9736 240.936L116.912 233.577C124.156 247.945 150.736 306.94 157.181 356.024L146.368 358.515C146.368 358.515 127.225 286.13 111.169 264.997C111.169 264.997 110.313 297.125 108.572 301.801C107.138 305.647 74.2666 357.099 74.2666 357.099L63.5884 356.007C63.5884 356.007 90.4282 303.497 92.0059 296.95C93.1218 292.493 88.2348 259.753 88.2348 259.753C87.3786 256.834 86.0896 244.746 86.0896 244.746C86.0896 244.746 85.1276 241.539 84.9736 240.936Z" fill="black"/>
<path d="M140.5 197.638C140.5 197.638 125.936 206.57 122.097 207.042C120.568 207.234 117.412 206.762 114.151 206.168C109.207 205.207 104.05 203.861 104.05 203.861L103.406 199.429L102.723 194.692C103.877 194.343 118.942 199.936 121.193 200.81C123.444 201.684 137.999 193.818 137.999 193.818L140.5 197.638Z" fill="#263238"/>
<path d="M95.4593 238.89L96.4021 242.247L86.0894 244.746L85.1274 241.268L95.4593 238.89Z" fill="black"/>
<path d="M111.727 235.141L112.621 238.322L97.5468 241.976L96.604 238.628L111.727 235.141Z" fill="black"/>
<path d="M118.557 236.889L113.757 238.051L112.872 234.879L117.278 233.865L118.557 236.889Z" fill="black"/>
<path d="M103.526 240.528L109.475 239.158L108.387 235.261L102.438 236.631L103.526 240.528Z" fill="white"/>
<path d="M117.268 233.856L85.1179 241.268C83.5499 237.413 81.953 233.533 80.3945 229.748C79.2497 226.978 78.1242 224.26 77.0275 221.629C76.7518 220.953 76.4728 220.289 76.1906 219.636L75.2286 217.311C74.5167 215.61 73.8305 213.97 73.1699 212.391L71.3998 208.187L70.5629 206.194L68.9756 202.436L102.732 194.657C113.863 212.303 117.268 233.856 117.268 233.856Z" fill="#263238"/>
<path d="M81.2312 201.684C84.704 203.196 91.111 200.531 91.111 200.531C91.111 200.531 93.237 198.398 91.9671 197.454C89.389 197.76 89.5525 196.991 88.6194 195.793C88.0858 195.038 87.7198 194.195 87.5419 193.311C87.4265 192.823 87.3398 192.33 87.2822 191.834L77.1523 188.531C79.4515 191.904 83.0205 198.293 81.2312 201.684Z" fill="#EBB376"/>
<path opacity="0.2" d="M80.231 191.546C82.0588 195.96 86.5417 196.091 88.6196 195.794C88.086 195.038 87.72 194.195 87.5421 193.311L80.231 191.546Z" fill="black"/>
<path d="M93.4297 174.8C93.4297 174.8 96.0752 182.054 92.256 185.594C88.4369 189.134 85.8491 175.263 85.8491 175.263L93.4297 174.8Z" fill="#263238"/>
<path d="M80.7311 193.495C81.8739 194.578 83.3762 195.292 85.0077 195.525C86.6393 195.759 88.3101 195.5 89.7643 194.788C91.6709 193.893 93.1297 192.371 93.8432 190.532C93.9394 190.287 94.026 190.025 94.1029 189.763C95.392 184.877 94.5839 176.81 88.7254 174.643C87.4341 174.159 86.0281 173.984 84.6411 174.133C83.2542 174.282 81.9323 174.752 80.8014 175.496C79.6704 176.241 78.7679 177.236 78.1798 178.387C77.5916 179.538 77.3373 180.806 77.4411 182.072C77.7874 187.517 77.7105 190.716 80.7311 193.495Z" fill="#EBB376"/>
<path d="M86.5127 183.619C86.5127 184.056 86.7628 184.414 87.0899 184.414C87.417 184.414 87.6575 184.056 87.6671 183.619C87.6767 183.182 87.4074 182.815 87.0899 182.815C86.7724 182.815 86.5127 183.173 86.5127 183.619Z" fill="#263238"/>
<path d="M92.0156 183.619C92.0156 184.065 92.2754 184.423 92.5928 184.423C92.9103 184.423 93.1604 184.056 93.17 183.619C93.1796 183.182 92.9007 182.823 92.5928 182.823C92.285 182.823 92.0156 183.199 92.0156 183.619Z" fill="#263238"/>
<path d="M90.2644 183.837C90.8395 185.191 91.6198 186.464 92.5828 187.622C92.2488 187.839 91.8662 187.987 91.4622 188.055C91.0582 188.123 90.6427 188.109 90.2451 188.015L90.2644 183.837Z" fill="#D58745"/>
<path d="M94.0262 181.574C93.98 181.595 93.9289 181.606 93.8771 181.606C93.8252 181.606 93.7741 181.595 93.728 181.574C93.4435 181.375 93.1115 181.24 92.7589 181.179C92.4063 181.118 92.043 181.134 91.6982 181.224C91.628 181.248 91.5501 181.246 91.4815 181.218C91.4129 181.191 91.3594 181.139 91.3326 181.075C91.3058 181.012 91.308 180.941 91.3387 180.879C91.3693 180.816 91.426 180.768 91.4961 180.743C91.9275 180.619 92.3855 180.592 92.831 180.664C93.2765 180.735 93.6965 180.903 94.055 181.154C94.0866 181.173 94.1136 181.197 94.1346 181.225C94.1557 181.253 94.1702 181.285 94.1774 181.318C94.1846 181.352 94.1843 181.386 94.1765 181.42C94.1687 181.453 94.1535 181.484 94.132 181.512C94.0997 181.537 94.0641 181.557 94.0262 181.574Z" fill="#263238"/>
<path d="M85.4259 181.635C85.3708 181.628 85.3182 181.61 85.2719 181.582C85.2191 181.533 85.1895 181.468 85.1895 181.399C85.1895 181.33 85.2191 181.264 85.2719 181.215C85.6082 180.936 86.0138 180.734 86.4544 180.627C86.8949 180.521 87.3572 180.513 87.802 180.604C87.8722 180.624 87.9313 180.668 87.967 180.726C88.0028 180.785 88.0126 180.853 87.9944 180.918C87.9721 180.984 87.9227 181.04 87.8566 181.074C87.7904 181.108 87.7124 181.118 87.6385 181.102C87.2876 181.038 86.9249 181.05 86.5804 181.138C86.2359 181.226 85.9193 181.388 85.6568 181.609C85.6224 181.627 85.5841 181.639 85.5443 181.644C85.5046 181.648 85.4643 181.645 85.4259 181.635Z" fill="#263238"/>
<path d="M81.8276 175.324L82.4048 176.33C80.4808 177.003 80.9618 179.065 81.4428 179.983C82.4048 181.958 81.2985 185.131 79.6727 186.45C79.6727 186.45 79.5669 185.576 78.7685 185.821C77.97 186.066 78.4318 190.593 80.1249 192.691C80.1249 192.691 77.6333 190.829 76.0364 186.127C74.5645 181.757 74.2182 178.113 75.1321 176.365L81.8276 175.324Z" fill="#263238"/>
<path d="M74.8247 186.547C75.152 187.157 75.6084 187.703 76.168 188.153C76.7276 188.602 77.3793 188.948 78.0859 189.169C80.0099 189.745 80.9719 188.233 80.5871 186.547C80.183 185.07 78.7304 182.928 76.7391 183.094C76.3192 183.137 75.9176 183.274 75.5707 183.493C75.2238 183.712 74.9426 184.006 74.7525 184.349C74.5624 184.692 74.4695 185.073 74.4821 185.456C74.4947 185.84 74.6124 186.215 74.8247 186.547Z" fill="#EBB376"/>
<path d="M81.7702 195.68C84.5985 197.48 90.1108 198.066 92.814 194.806C95.5172 191.546 94.6514 186.311 94.6514 186.311C94.341 187.48 93.7496 188.572 92.9198 189.51C91.3902 187.831 88.7929 188.784 88.7929 188.784C88.2455 188.137 87.4602 187.69 86.5802 187.526C85.32 187.412 81.7702 187.604 81.7702 187.604C80.6351 186.949 80.587 184.03 80.587 184.03L79.8944 184.554C79.8944 184.554 78.9323 193.871 81.7702 195.68Z" fill="#263238"/>
<path d="M89.3316 177.177C89.3316 177.177 96.0656 174.206 95.2672 171.234C94.4687 168.262 92.5062 171.654 92.5062 171.654C92.5062 171.654 93.4105 169.399 91.6404 169.032C89.8703 168.664 90.4283 170.107 89.4663 170.972C88.5043 171.837 79.1729 170.579 76.1618 172.274C73.1508 173.97 75.45 179.834 75.45 179.834C77.2283 178.212 79.4889 177.097 81.9547 176.625C84.4204 176.153 86.9842 176.345 89.3316 177.177Z" fill="#263238"/>
<path opacity="0.2" d="M81.7702 195.68C84.5985 197.48 90.1108 198.066 92.814 194.806C95.5172 191.546 94.6514 186.311 94.6514 186.311C94.341 187.48 93.7496 188.572 92.9198 189.51C91.3902 187.831 88.7929 188.784 88.7929 188.784C88.2455 188.137 87.4602 187.69 86.5802 187.526C85.32 187.412 81.7702 187.604 81.7702 187.604C80.6351 186.949 80.587 184.03 80.587 184.03L79.8944 184.554C79.8944 184.554 78.9323 193.871 81.7702 195.68Z" fill="white"/>
<path d="M89.0811 190.445C88.5634 191.074 88.0972 191.737 87.6862 192.429L87.2533 192.28C85.3293 191.642 84.6366 190.768 84.4827 189.981C84.4205 189.6 84.4567 189.211 84.5885 188.845C84.6587 188.633 84.7589 188.431 84.8868 188.242C85.8987 189.12 87.1058 189.79 88.4269 190.209C88.8213 190.366 89.0811 190.445 89.0811 190.445Z" fill="#263238"/>
<path d="M88.4272 190.217L87.9943 190.794C86.1665 190.191 84.964 189.545 84.5889 188.854C84.659 188.642 84.7592 188.439 84.8871 188.251C85.899 189.129 87.1061 189.799 88.4272 190.217Z" fill="white"/>
<path d="M87.2535 192.28C85.3295 191.642 84.6368 190.768 84.4829 189.981C85.2176 190.241 85.8977 190.614 86.4935 191.083C86.8791 191.399 87.145 191.818 87.2535 192.28Z" fill="#DE5753"/>
<path d="M92.3808 200.539L91.8132 205.067L102.203 225.177L101.173 227.843L97.7776 226.418L90.3702 205.906L84.9253 202.558L88.8887 200.583L92.3808 200.539Z" fill="#868CB7"/>
<path d="M81.4621 197.445L88.3404 200.024L88.6194 195.793L93.6891 196.93L94.122 203.371L89.2447 201.562L87.2052 205.687L78.5376 200.426L81.4621 197.445Z" fill="#263238"/>
<path opacity="0.2" d="M81.4621 197.445L88.3404 200.024L88.6194 195.793L93.6891 196.93L94.122 203.371L89.2447 201.562L87.2052 205.687L78.5376 200.426L81.4621 197.445Z" fill="white"/>
<path opacity="0.2" d="M75.2189 217.312C74.507 215.61 73.8208 213.97 73.1602 212.391L71.3902 208.187L70.5532 206.194C71.5152 205.766 73.9683 206.019 74.6513 207.068C77.1525 211.036 75.2189 217.312 75.2189 217.312Z" fill="black"/>
<path opacity="0.2" d="M87.2728 221.751C86.8618 223.469 86.03 225.079 84.8391 226.464C83.6482 227.848 82.129 228.971 80.3945 229.749C79.2497 226.978 78.1241 224.26 77.0275 221.629C76.7517 220.953 76.4727 220.289 76.1905 219.636L75.2285 217.312L86.3685 218.596L87.2728 221.751Z" fill="black"/>
<path opacity="0.2" d="M114.151 206.133C109.206 205.172 104.05 203.826 104.05 203.826L103.405 199.395C103.405 199.395 112.496 200.277 114.151 206.133Z" fill="black"/>
<path d="M68.9657 309.396C68.6641 309.405 68.367 309.328 68.1161 309.176C67.8651 309.024 67.6731 308.804 67.5669 308.547C67.4607 308.291 67.4458 308.01 67.5241 307.745C67.6025 307.481 67.7702 307.245 68.0037 307.071C84.0595 295.097 83.7517 276.333 83.4534 258.18C83.2226 244.493 83.0109 231.558 90.1009 222.765C100.048 210.407 140.058 190.803 146.686 190.244C151.428 189.815 296.084 153.291 371.919 134.037C372.287 133.943 372.682 133.986 373.016 134.156C373.35 134.327 373.595 134.611 373.698 134.946C373.802 135.281 373.754 135.639 373.567 135.942C373.379 136.246 373.067 136.469 372.698 136.563C363.723 138.844 152.9 192.359 146.955 192.857C141.25 193.338 101.645 212.863 92.4289 224.321C85.9162 232.405 86.1182 244.912 86.3394 258.145C86.628 276.044 86.9647 296.339 69.8315 309.108C69.5861 309.288 69.2816 309.39 68.9657 309.396Z" fill="#263238"/>
<path opacity="0.4" d="M372.746 136.554L352.968 141.588C298.567 155.38 151.91 192.455 147.003 192.866C141.299 193.346 101.693 212.872 92.4773 224.33C85.9645 232.414 86.1665 244.921 86.3878 258.154C86.6764 276.053 87.0131 296.347 69.8799 309.116C69.6104 309.32 69.2679 309.425 68.9179 309.414C68.6163 309.423 68.3191 309.346 68.0682 309.194C67.8173 309.041 67.6252 308.821 67.5191 308.565C67.4129 308.308 67.3979 308.028 67.4763 307.763C67.5546 307.498 67.7224 307.262 67.9559 307.089C84.0117 295.115 83.7038 276.35 83.4056 258.197C83.1747 244.51 82.9631 231.575 90.053 222.783C100 210.424 140.01 190.821 146.638 190.261C151.102 189.859 279.259 157.539 357.585 137.681L371.871 134.054C372.24 133.96 372.634 134.003 372.968 134.174C373.302 134.344 373.547 134.628 373.651 134.963C373.754 135.298 373.707 135.657 373.519 135.96C373.331 136.263 373.019 136.486 372.65 136.58L372.746 136.554Z" fill="white"/>
<path opacity="0.2" d="M372.746 136.554L352.968 141.588C354.354 140.11 355.938 138.795 357.682 137.673L371.967 134.045C372.336 133.952 372.731 133.995 373.064 134.165C373.398 134.336 373.644 134.62 373.747 134.954C373.85 135.289 373.803 135.648 373.615 135.951C373.428 136.254 373.115 136.477 372.746 136.571V136.554Z" fill="black"/>
<path d="M78.7974 219.199L86.3587 218.596C86.3587 218.596 90.3125 216.324 91.0725 216.472C91.8325 216.621 99.3649 219.968 99.3649 219.968C99.3649 219.968 95.9498 223.963 95.3822 224.793C94.8147 225.623 88.0133 221.708 88.0133 221.708L80.5193 222.433L78.7974 219.199Z" fill="#EBB376"/>
<path d="M68.9659 202.436C65.5316 204.665 56.585 222.835 57.5373 225.641C58.4897 228.446 86.33 222.914 86.33 222.914L85.0986 218.186H70.1203L73.6797 213.081C73.6797 213.081 75.8731 211.141 74.5263 206.631C73.5546 203.38 68.9659 202.436 68.9659 202.436Z" fill="#263238"/>
<path d="M359.028 204.262L353.323 201.806C353.323 201.806 350.437 196.79 349.591 195.986C348.744 195.182 344.656 198.302 344.656 198.844C344.656 199.385 347.619 204.455 348.388 204.761C349.533 204.913 350.697 204.913 351.842 204.761L357.268 207.147L359.028 204.262Z" fill="#9F5B53"/>
<path d="M372.342 173.174L373.487 169.46C373.487 169.46 375.296 164.618 375.103 163.499C374.75 162.175 374.293 160.875 373.737 159.61C373.737 159.61 368.735 165.142 368.735 165.833C368.735 166.523 370.717 169.032 370.717 169.032L369.755 173.174H372.342Z" fill="#9F5B53"/>
<path d="M376.739 200.845C376.739 200.845 372.429 195.977 371.159 191.45C369.889 186.922 373.727 172.222 373.727 172.222L369.677 171.243C369.677 171.243 364.867 186.284 364.704 191.773C364.54 197.262 373.525 213.37 373.525 213.37L376.739 200.845Z" fill="#868CB7"/>
<path opacity="0.2" d="M374.132 210.949L373.516 213.335C373.516 213.335 370.418 207.785 367.888 202.086C370.521 203.804 372.506 206.219 373.574 209C373.818 209.634 374.004 210.286 374.132 210.949Z" fill="black"/>
<path d="M399.557 211.508C399.503 212.524 399.368 213.534 399.153 214.532C398.711 216.717 397.961 219.295 397.104 222.136C396.643 223.63 396.142 225.23 395.7 226.917C393.555 234.494 392.391 237.51 390.803 247.185L360.356 240.621C362.001 232.339 364.511 224.218 367.85 216.368C368.735 214.279 369.774 212.19 370.823 210.127C372.504 206.893 374.483 203.794 376.739 200.863C376.739 200.863 381.664 204.953 397.133 207.409C399.009 207.671 399.654 209.157 399.557 211.508Z" fill="#868CB7"/>
<path opacity="0.2" d="M395.729 208.353C395.729 209.227 399.375 213.387 399.153 214.471C398.74 214.724 398.249 215.004 397.691 215.345C387.388 220.79 373.872 218.028 367.869 216.341C368.754 214.252 370.755 210.415 371.794 208.353L379.019 209.812C379.019 209.812 390.832 207.365 395.729 208.353Z" fill="black"/>
<path d="M383.348 202.515C384.454 202.13 393.535 204.184 392.862 204.359C392.189 204.534 388.802 213.973 384.06 213.265C379.317 212.557 379.404 203.878 383.348 202.515Z" fill="#868CB7"/>
<path d="M342.232 357.169L336.517 358.296L333.179 346.357L338.903 345.23L342.232 357.169Z" fill="#9F5B53"/>
<path d="M335.093 356.129H342.203C342.319 356.129 342.431 356.165 342.52 356.232C342.61 356.299 342.671 356.393 342.693 356.496L343.848 361.224C343.873 361.325 343.876 361.43 343.856 361.532C343.836 361.634 343.794 361.732 343.732 361.819C343.671 361.906 343.59 361.981 343.496 362.039C343.402 362.098 343.296 362.139 343.184 362.159H342.992C340.692 362.159 339.018 361.993 336.132 361.993C334.353 361.993 328.985 362.159 326.512 362.159C324.04 362.159 323.742 359.957 324.742 359.756C329.254 358.882 332.65 357.623 334.093 356.452C334.228 356.341 334.386 356.255 334.558 356.199C334.729 356.144 334.911 356.12 335.093 356.129Z" fill="#263238"/>
<path d="M333.16 357.064C332.762 357.091 332.366 356.995 332.035 356.793C331.927 356.713 331.843 356.609 331.793 356.491C331.742 356.373 331.726 356.245 331.746 356.12C331.741 356.046 331.761 355.973 331.802 355.909C331.843 355.846 331.904 355.794 331.977 355.762C332.631 355.456 334.517 356.513 334.728 356.636C334.753 356.647 334.772 356.665 334.784 356.687C334.797 356.709 334.8 356.734 334.796 356.758C334.792 356.783 334.78 356.807 334.761 356.826C334.742 356.845 334.717 356.858 334.69 356.863C334.19 356.982 333.677 357.049 333.16 357.064ZM332.285 355.963C332.229 355.945 332.168 355.945 332.112 355.963C332.112 355.963 332.025 356.006 332.015 356.111C332.005 356.194 332.018 356.278 332.051 356.356C332.085 356.433 332.138 356.502 332.208 356.557C332.862 356.829 333.605 356.863 334.286 356.653C333.674 356.308 332.995 356.073 332.285 355.963Z" fill="#868CB7"/>
<path d="M334.651 356.872H334.584C333.988 356.575 332.814 355.403 332.929 354.844C332.951 354.75 333.008 354.666 333.091 354.605C333.173 354.545 333.276 354.512 333.381 354.512C333.487 354.499 333.594 354.507 333.695 354.536C333.796 354.565 333.89 354.613 333.968 354.678C334.642 355.176 334.786 356.706 334.796 356.776C334.797 356.798 334.792 356.821 334.78 356.841C334.768 356.861 334.75 356.878 334.728 356.889C334.715 356.893 334.701 356.893 334.687 356.89C334.674 356.887 334.661 356.881 334.651 356.872ZM333.478 354.713H333.41C333.228 354.713 333.218 354.809 333.208 354.844C333.131 355.194 333.882 356.076 334.478 356.487C334.445 355.891 334.214 355.318 333.814 354.844C333.771 354.802 333.719 354.769 333.661 354.747C333.603 354.724 333.541 354.713 333.478 354.713Z" fill="#868CB7"/>
<path d="M391.053 247.91C391.053 247.91 386.118 269.288 374.574 275.004C373.249 275.681 371.798 276.128 370.293 276.324C370.293 276.324 358.586 280.694 348.465 284.828C342.309 287.354 336.739 289.818 334.747 291.199C329.476 294.844 342.386 351.741 342.386 351.741L333.612 351.829C333.612 351.829 315.151 301.451 318.22 288.228C321.289 275.004 354.42 254.762 354.42 254.762L359.519 242.019L391.053 247.91Z" fill="#263238"/>
<path opacity="0.2" d="M374.574 275.03C373.249 275.707 371.798 276.155 370.293 276.35C370.293 276.35 358.586 280.72 348.465 284.854C354.978 273.973 366.589 266.902 366.589 266.902L374.574 275.03Z" fill="black"/>
<path d="M415.786 357.169L410.072 358.296L406.734 346.357L412.458 345.23L415.786 357.169Z" fill="#9F5B53"/>
<path d="M408.648 356.129H415.757C415.873 356.129 415.986 356.165 416.075 356.232C416.165 356.299 416.226 356.393 416.248 356.496L417.402 361.224C417.428 361.325 417.431 361.43 417.411 361.532C417.391 361.634 417.349 361.732 417.287 361.819C417.225 361.906 417.145 361.981 417.051 362.039C416.957 362.098 416.85 362.139 416.739 362.159H416.546C414.247 362.159 412.573 361.993 409.687 361.993C407.907 361.993 402.539 362.159 400.067 362.159C397.595 362.159 397.297 359.957 398.297 359.756C402.809 358.882 406.205 357.623 407.648 356.452C407.783 356.341 407.94 356.255 408.112 356.199C408.284 356.144 408.466 356.12 408.648 356.129Z" fill="#263238"/>
<path d="M406.714 357.064C406.316 357.091 405.92 356.995 405.589 356.793C405.481 356.713 405.398 356.609 405.347 356.491C405.297 356.373 405.28 356.245 405.3 356.12C405.296 356.046 405.315 355.973 405.356 355.909C405.397 355.846 405.458 355.794 405.531 355.762C406.185 355.456 408.071 356.513 408.282 356.636C408.307 356.647 408.326 356.665 408.339 356.687C408.351 356.709 408.355 356.734 408.35 356.758C408.346 356.783 408.334 356.807 408.315 356.826C408.296 356.845 408.271 356.858 408.244 356.863C407.744 356.982 407.231 357.049 406.714 357.064ZM405.839 355.963C405.783 355.945 405.722 355.945 405.666 355.963C405.666 355.963 405.579 356.006 405.57 356.111C405.56 356.194 405.572 356.278 405.605 356.356C405.639 356.433 405.693 356.502 405.762 356.557C406.416 356.829 407.159 356.863 407.84 356.653C407.228 356.308 406.549 356.073 405.839 355.963Z" fill="#868CB7"/>
<path d="M408.205 356.872H408.138C407.542 356.575 406.368 355.403 406.484 354.844C406.506 354.75 406.562 354.666 406.645 354.605C406.727 354.545 406.83 354.512 406.936 354.512C407.041 354.499 407.148 354.507 407.249 354.536C407.351 354.565 407.444 354.613 407.522 354.678C408.196 355.176 408.34 356.706 408.35 356.776C408.351 356.798 408.346 356.821 408.334 356.841C408.322 356.861 408.304 356.878 408.282 356.889C408.269 356.893 408.255 356.893 408.241 356.89C408.228 356.887 408.215 356.881 408.205 356.872ZM407.032 354.713H406.926C406.743 354.713 406.734 354.809 406.724 354.844C406.647 355.194 407.397 356.076 407.994 356.487C407.956 355.882 407.715 355.302 407.301 354.827C407.228 354.763 407.133 354.723 407.032 354.713Z" fill="#868CB7"/>
<path d="M393.025 207.042C391.592 207.916 384.983 207.584 384.983 207.584L381.914 210.634L381.616 205.591C381.616 205.591 379.548 204.813 380.115 204.271C380.835 204.32 381.558 204.238 382.241 204.029C382.925 203.82 383.557 203.49 384.098 203.056C385.435 201.868 385.695 199.954 385.676 198.057C385.676 198.057 385.676 198.005 385.676 197.987L391.322 195.365L395.228 193.539C393.391 197.139 390.765 203.895 393.025 207.042Z" fill="#9F5B53"/>
<path opacity="0.2" d="M393.189 196.563C391.323 200.854 386.455 202.768 384.06 203.048C385.397 201.859 385.656 199.945 385.637 198.048C385.642 198.022 385.642 197.996 385.637 197.97L391.284 195.348C391.294 196.047 393.458 195.907 393.189 196.563Z" fill="black"/>
<path d="M396.777 196.388C396.777 196.388 400.442 198.136 401.664 196.047C402.886 193.958 401.145 193.836 402.943 193.084C404.742 192.332 407.301 191.808 406.715 190.226C406.128 188.644 404.31 188.478 406.33 186.73C408.35 184.982 408.792 182.517 405.772 182.037C402.751 181.556 403.906 179.415 403.752 178.541C403.598 177.667 401.905 177.055 400.067 177.404C398.23 177.754 397.46 175.281 396.325 174.511C395.19 173.742 393.622 174.686 393.208 175.726C392.794 176.766 391.707 175.385 390.091 175.211C388.475 175.036 388.85 176.583 388.35 178.025C387.85 179.467 386.859 178.532 385.704 179.721C384.55 180.909 384.444 189.02 396.777 196.388Z" fill="#263238"/>
<path d="M398.374 191.406C395.613 195.339 394.045 197.935 390.947 199.211C390.53 199.385 390.099 199.531 389.658 199.648C383.636 201.256 378.672 195.986 380.259 190.768C380.561 189.826 380.948 188.908 381.414 188.024C383.569 183.924 387.715 179.729 392.669 180.28C393.704 180.387 394.705 180.679 395.615 181.138C396.525 181.598 397.327 182.216 397.974 182.957C398.621 183.698 399.1 184.548 399.385 185.458C399.67 186.368 399.755 187.32 399.634 188.259C399.489 189.383 399.057 190.46 398.374 191.406Z" fill="#9F5B53"/>
<path d="M389.899 188.784C389.697 189.177 389.264 189.352 388.995 189.221C388.725 189.09 388.696 188.662 388.918 188.295C389.139 187.927 389.562 187.726 389.822 187.858C390.082 187.989 390.13 188.426 389.899 188.784Z" fill="#263238"/>
<path d="M385.233 186.45C385.173 186.615 385.045 186.751 384.877 186.831C384.708 186.911 384.511 186.928 384.329 186.879C384.069 186.739 384.03 186.328 384.261 185.952C384.492 185.576 384.896 185.384 385.166 185.524C385.435 185.664 385.454 186.092 385.233 186.45Z" fill="#263238"/>
<path d="M386.609 187.385C385.413 188.278 384.09 189.019 382.674 189.588C382.843 189.915 383.09 190.205 383.395 190.436C383.701 190.667 384.059 190.834 384.444 190.925L386.609 187.385Z" fill="#892B29"/>
<path d="M392.689 187.805C392.638 187.812 392.587 187.807 392.54 187.79C392.492 187.773 392.451 187.745 392.419 187.709C392.224 187.448 391.964 187.232 391.66 187.08C391.355 186.929 391.016 186.844 390.668 186.835C390.628 186.842 390.587 186.841 390.547 186.831C390.507 186.822 390.47 186.805 390.439 186.781C390.407 186.757 390.382 186.727 390.364 186.694C390.347 186.66 390.338 186.623 390.338 186.586C390.338 186.549 390.347 186.512 390.364 186.478C390.382 186.444 390.407 186.415 390.439 186.391C390.47 186.367 390.507 186.35 390.547 186.341C390.587 186.331 390.628 186.33 390.668 186.337C391.107 186.34 391.538 186.439 391.925 186.626C392.312 186.813 392.643 187.083 392.891 187.412C392.913 187.437 392.93 187.467 392.94 187.499C392.95 187.53 392.953 187.563 392.948 187.596C392.944 187.629 392.932 187.66 392.914 187.689C392.896 187.717 392.872 187.742 392.843 187.762C392.796 187.787 392.743 187.802 392.689 187.805Z" fill="#263238"/>
<path d="M385.57 193.268C386.216 193.458 386.903 193.505 387.572 193.403C388.242 193.301 388.875 193.053 389.418 192.682C389.442 192.657 389.455 192.624 389.455 192.59C389.455 192.556 389.442 192.524 389.418 192.498C389.391 192.474 389.354 192.461 389.317 192.461C389.279 192.461 389.243 192.474 389.216 192.498C388.702 192.834 388.109 193.056 387.485 193.147C386.86 193.238 386.221 193.195 385.618 193.023C385.601 193.016 385.582 193.013 385.564 193.013C385.545 193.013 385.527 193.017 385.511 193.025C385.494 193.032 385.48 193.043 385.468 193.056C385.457 193.07 385.449 193.085 385.445 193.101C385.437 193.117 385.433 193.134 385.434 193.15C385.434 193.167 385.438 193.184 385.447 193.199C385.455 193.214 385.467 193.227 385.482 193.237C385.496 193.248 385.513 193.255 385.531 193.259L385.57 193.268Z" fill="#263238"/>
<path d="M384.8 182.823C384.785 182.775 384.785 182.723 384.8 182.675C384.831 182.615 384.887 182.569 384.956 182.546C385.024 182.523 385.099 182.525 385.166 182.552C385.569 182.716 385.924 182.967 386.198 183.282C386.473 183.596 386.66 183.967 386.743 184.361C386.752 184.427 386.731 184.494 386.686 184.546C386.641 184.598 386.575 184.632 386.503 184.641C386.43 184.649 386.357 184.63 386.3 184.589C386.242 184.548 386.205 184.488 386.195 184.423C386.119 184.114 385.965 183.826 385.744 183.582C385.524 183.337 385.243 183.143 384.925 183.016C384.891 182.993 384.862 182.964 384.841 182.931C384.819 182.898 384.805 182.861 384.8 182.823Z" fill="#263238"/>
<path d="M388.764 180.647C390.168 180.804 390.861 182.395 390.861 182.395C392.559 182.959 394.201 183.655 395.767 184.475C396.245 184.829 396.604 185.297 396.805 185.827C397.005 186.357 397.039 186.927 396.902 187.473C396.854 187.892 395.719 188.277 395.719 188.277C395.719 188.277 393.641 192.734 393.073 193.967L393.362 198.083C397.181 195.889 400.239 192.76 402.184 189.055C405.464 182.849 391.775 177.387 391.775 177.387L388.764 180.647Z" fill="#263238"/>
<path d="M397.546 197.629C396.267 198.265 394.763 198.416 393.362 198.048C391.505 197.541 391.611 195.811 392.987 194.701C394.218 193.74 396.69 192.787 398.124 193.906C398.437 194.149 398.679 194.46 398.825 194.811C398.971 195.162 399.017 195.54 398.96 195.911C398.902 196.282 398.742 196.634 398.495 196.935C398.248 197.235 397.922 197.474 397.546 197.629Z" fill="#9F5B53"/>
<path d="M392.862 204.359L385.214 206.36L381.914 210.424L382.809 205.451C382.809 205.451 381.991 204.306 383.347 202.515L378.691 203.389L375.882 207.654L381.346 206.491L381.722 211.447L384.906 208.038L387.513 211.779L395.267 207.313L392.862 204.359Z" fill="#868CB7"/>
<path opacity="0.2" d="M392.862 204.359L385.214 206.36L381.914 210.424L382.809 205.451C382.809 205.451 381.991 204.306 383.347 202.515L378.691 203.389L375.882 207.654L381.346 206.491L381.722 211.447L384.906 208.038L387.513 211.779L395.267 207.313L392.862 204.359Z" fill="black"/>
<path d="M360.76 237.728L359.567 242.046L391.044 247.91L391.515 243.112L360.76 237.728Z" fill="black"/>
<path d="M374.815 239.992C374.565 239.668 367.561 238.296 366.898 238.751C366.898 238.751 365.541 243.007 365.772 243.453C366.003 243.898 372.814 244.764 373.468 244.886C374.122 245.008 375.065 240.35 374.815 239.992ZM372.891 244.362C372.371 244.265 366.773 243.558 366.58 243.19C366.388 242.823 367.542 239.327 367.542 239.327C368.09 238.952 373.843 240.079 374.045 240.341C374.247 240.603 373.41 244.414 372.891 244.318V244.362Z" fill="white"/>
<path d="M373.16 241.442L371.765 241.18C371.638 241.158 371.506 241.18 371.396 241.241C371.286 241.303 371.205 241.399 371.169 241.512C371.149 241.576 371.143 241.642 371.153 241.707C371.163 241.772 371.188 241.835 371.226 241.891C371.264 241.947 371.314 241.995 371.374 242.032C371.434 242.069 371.502 242.095 371.573 242.107L372.968 242.351C373.103 242.376 373.243 242.35 373.358 242.281C373.472 242.211 373.552 242.103 373.578 241.98C373.605 241.857 373.577 241.73 373.501 241.626C373.424 241.521 373.305 241.449 373.17 241.425L373.16 241.442Z" fill="white"/>
<path d="M391.044 247.91C391.044 247.91 391.65 280.248 390.649 289.687C389.649 299.127 415.584 350.789 415.584 350.789H407.186C407.186 350.789 381.741 312.962 375.911 301.32C370.082 289.679 365.772 261.903 365.772 261.903L391.044 247.91Z" fill="#263238"/>
<path d="M399.663 209.236C398.364 206.561 378.422 210.52 376.623 210.057C374.824 209.594 356.104 202.471 356.104 202.471L354.478 206.264C354.478 206.264 371.265 215.004 374.94 216.385C378.615 217.766 393.304 217.102 397.066 215.625C397.71 215.372 398.29 215.004 398.772 214.542C399.255 214.08 399.629 213.533 399.872 212.936C400.115 212.338 400.221 211.702 400.185 211.066C400.15 210.43 399.972 209.807 399.663 209.236Z" fill="#868CB7"/>
<path d="M396.133 139.779L390.091 104.819L358.268 125.262L368.85 129.335C358.634 150.608 325.493 212.933 268.466 258.888C195.652 317.577 93.7375 346.454 92.7178 346.733L98.3551 363.453C102.684 362.247 205.214 333.23 281.27 271.936C341.876 223.097 375.95 158.683 386.647 136.134L396.133 139.779Z" fill="#868CB7"/>
<path opacity="0.4" d="M390.361 133.661L390.091 104.819L358.268 125.262L368.85 129.335C358.634 150.608 325.493 212.933 268.466 258.888C195.652 317.577 93.7375 346.454 92.7178 346.733L94.5071 357.335C98.8361 356.129 201.366 329.734 277.422 268.44C338.028 219.601 370.178 154.313 380.875 131.764L390.361 133.661Z" fill="white"/>
<path d="M384.8 141.256C384.65 141.257 384.501 141.236 384.358 141.195L365.878 135.767C365.687 135.722 365.509 135.643 365.354 135.533C365.198 135.423 365.07 135.286 364.975 135.129C364.88 134.973 364.822 134.8 364.803 134.623C364.784 134.445 364.806 134.265 364.866 134.095C364.927 133.925 365.025 133.768 365.154 133.634C365.284 133.5 365.442 133.391 365.62 133.314C365.797 133.237 365.99 133.194 366.187 133.188C366.383 133.181 366.579 133.211 366.763 133.276L385.243 138.695C385.572 138.79 385.852 138.988 386.034 139.255C386.216 139.522 386.286 139.838 386.233 140.148C386.179 140.458 386.005 140.74 385.742 140.943C385.48 141.146 385.145 141.257 384.8 141.256Z" fill="#263238"/>
<path opacity="0.4" d="M384.8 141.256C384.65 141.257 384.501 141.236 384.358 141.195L365.878 135.767C365.687 135.722 365.509 135.643 365.354 135.533C365.198 135.423 365.07 135.286 364.975 135.129C364.88 134.973 364.822 134.8 364.803 134.623C364.784 134.445 364.806 134.265 364.866 134.095C364.927 133.925 365.025 133.768 365.154 133.634C365.284 133.5 365.442 133.391 365.62 133.314C365.797 133.237 365.99 133.194 366.187 133.188C366.383 133.181 366.579 133.211 366.763 133.276L385.243 138.695C385.572 138.79 385.852 138.988 386.034 139.255C386.216 139.522 386.286 139.838 386.233 140.148C386.179 140.458 386.005 140.74 385.742 140.943C385.48 141.146 385.145 141.257 384.8 141.256Z" fill="white"/>
<path d="M163.472 304.869C163.09 304.869 162.723 304.731 162.452 304.485C162.181 304.239 162.029 303.905 162.029 303.558C162.029 261.833 175.372 256.362 177.873 255.689L220.298 228.726L220.394 228.673L383.376 140.871C383.705 140.701 384.094 140.655 384.46 140.743C384.825 140.831 385.139 141.046 385.332 141.342C385.525 141.637 385.582 141.99 385.491 142.324C385.401 142.658 385.17 142.946 384.848 143.126L221.943 230.902L179.316 257.996C179.135 258.111 178.928 258.188 178.71 258.223C178.605 258.223 164.915 261.282 164.915 303.584C164.908 303.927 164.752 304.254 164.483 304.494C164.213 304.734 163.85 304.869 163.472 304.869Z" fill="#263238"/>
<path opacity="0.4" d="M163.472 304.869C163.09 304.869 162.723 304.731 162.452 304.485C162.181 304.239 162.029 303.905 162.029 303.558C162.029 261.833 175.372 256.362 177.873 255.689L220.298 228.726L220.394 228.673L383.376 140.871C383.705 140.701 384.094 140.655 384.46 140.743C384.825 140.831 385.139 141.046 385.332 141.342C385.525 141.637 385.582 141.99 385.491 142.324C385.401 142.658 385.17 142.946 384.848 143.126L221.943 230.902L179.316 257.996C179.135 258.111 178.928 258.188 178.71 258.223C178.605 258.223 164.915 261.282 164.915 303.584C164.908 303.927 164.752 304.254 164.483 304.494C164.213 304.734 163.85 304.869 163.472 304.869Z" fill="white"/>
<path d="M174.555 261.571C174.555 261.571 167.138 265.941 161.5 267.261C160.109 267.688 158.616 267.763 157.181 267.479C152.987 266.273 155.478 258.896 157.979 254.238C158.383 253.478 158.787 252.796 159.163 252.219L166.493 256.336C166.493 256.336 162.049 262.095 162.558 262.454C163.068 262.812 169.918 259.342 170.254 259.228C170.591 259.115 174.555 261.571 174.555 261.571Z" fill="#868CB7"/>
<path opacity="0.2" d="M174.555 261.571C174.555 261.571 167.138 265.941 161.5 267.261C159.935 263.015 158.758 258.659 157.979 254.238C158.384 253.478 158.788 252.796 159.163 252.219L166.493 256.336C166.493 256.336 162.049 262.095 162.559 262.454C163.068 262.812 169.918 259.342 170.255 259.228C170.591 259.115 174.555 261.571 174.555 261.571Z" fill="black"/>
<path d="M210.678 236.207L215.026 232.711C215.374 231.713 215.852 230.757 216.45 229.862C216.921 229.504 224.838 228.944 224.838 228.944C224.838 228.944 224.992 232.746 224.367 233.734C223.742 234.721 217.277 235.15 217.277 235.15L213.814 238.182L210.678 236.207Z" fill="#EEC1BB"/>
<path d="M233.843 319.054C232.602 335.275 229.283 358.296 229.283 358.296L225.012 359.17C225.012 359.17 221.068 339.899 221.693 322.017C221.805 318.118 222.21 314.232 222.905 310.384C222.905 310.384 208.109 305.218 197.835 300.595C192.929 298.392 189.052 296.304 188.311 294.958C186.022 290.806 196.431 281.052 196.431 281.052C196.758 281.288 203.04 284.924 210.351 289.233C220.057 294.949 231.573 301.853 233.439 303.575C234.555 304.563 234.459 310.961 233.843 319.054Z" fill="#EEC1BB"/>
<path opacity="0.2" d="M233.843 319.054C229.894 320.354 225.829 321.34 221.693 321.999C221.804 318.101 222.209 314.214 222.905 310.366C222.905 310.366 208.109 305.201 197.835 300.577L210.341 289.215C220.048 294.931 231.563 301.836 233.429 303.558C234.555 304.563 234.458 310.961 233.843 319.054Z" fill="black"/>
<path d="M200.539 278.343C200.539 278.343 241.587 299.782 247.167 304.624C252.746 309.466 284.954 354.713 284.954 354.713L282.241 357.064C282.241 357.064 255.498 336.21 244.829 316.388L200.577 296.959L200.539 278.343Z" fill="#EEC1BB"/>
<path d="M169.312 238.759C169.378 238.801 169.449 238.836 169.523 238.864C170.531 239.383 171.643 239.713 172.794 239.834C176.142 240.105 178.297 239.424 179.528 237.903C181.241 235.648 181.202 232.047 180.259 227.808C179.947 226.112 179.34 224.472 178.46 222.949C178.46 222.949 178.46 222.888 178.46 222.879L178.345 222.704C177.809 221.851 177.047 221.134 176.128 220.618C175.209 220.102 174.162 219.804 173.083 219.75C172.143 219.679 171.198 219.703 170.264 219.82C161.125 220.895 161.616 234.896 169.312 238.759Z" fill="#EEC1BB"/>
<path opacity="0.2" d="M169.562 238.864C170.572 239.354 171.682 239.652 172.823 239.738C176.161 240.009 178.307 239.223 179.557 237.693C177.686 238.371 175.623 238.478 173.679 237.999C172.966 237.849 172.224 237.849 171.51 237.999C170.797 238.149 170.131 238.445 169.562 238.864Z" fill="black"/>
<path d="M168.946 245.699C168.148 248.041 171.448 249.283 171.448 249.283C177.22 247.535 178.518 244.974 178.518 244.974C174.093 242.352 176.036 236.286 176.036 236.286L175.074 236.636L168.34 237.282C168.34 237.282 169.87 240.63 170.043 241.382C170.89 245.323 168.946 245.699 168.946 245.699Z" fill="#EBB376"/>
<path d="M178.518 222.87C178.518 222.87 179.923 228.647 174.218 231.925C174.218 231.925 172.535 238.331 168.696 238.917C163.463 239.703 157.797 233.507 158.547 226.357C159.528 217.11 174.362 214.48 178.518 222.87Z" fill="#263238"/>
<path d="M177.008 229.862C176.864 228.988 175.825 227.52 174.295 227.931C172.766 228.341 172.371 232.073 176.469 232.379C177.095 232.484 177.345 231.785 177.008 229.862Z" fill="#EBB376"/>
<path d="M283.165 351.934L278.739 355.028C278.649 355.094 278.585 355.186 278.559 355.289C278.533 355.392 278.546 355.5 278.595 355.596L280.846 359.966C280.895 360.058 280.963 360.141 281.047 360.21C281.13 360.278 281.228 360.331 281.335 360.366C281.441 360.4 281.554 360.414 281.666 360.409C281.779 360.403 281.889 360.377 281.991 360.333C282.049 360.309 282.103 360.279 282.155 360.245C283.944 358.943 284.002 358.742 286.282 357.151C287.676 356.173 292.054 353.341 293.978 351.986C295.902 350.631 294.689 348.717 293.766 349.111C289.61 350.859 286.07 351.794 284.146 351.663C283.793 351.638 283.443 351.735 283.165 351.934Z" fill="#263238"/>
<path d="M284.127 351.855C284.102 351.866 284.075 351.87 284.048 351.866C284.021 351.862 283.995 351.851 283.976 351.834C283.956 351.817 283.942 351.794 283.937 351.77C283.931 351.746 283.933 351.721 283.944 351.698C284.031 351.488 284.819 349.609 285.531 349.495C285.61 349.48 285.692 349.486 285.767 349.512C285.843 349.538 285.908 349.584 285.955 349.644C286.053 349.732 286.125 349.842 286.163 349.963C286.202 350.084 286.206 350.212 286.176 350.334C286.061 350.691 285.813 351 285.474 351.208C285.053 351.47 284.602 351.687 284.127 351.855ZM284.329 351.497C285.008 351.287 285.572 350.849 285.906 350.273C285.925 350.19 285.921 350.105 285.894 350.024C285.867 349.943 285.819 349.869 285.753 349.81C285.676 349.74 285.608 349.722 285.579 349.749C285.519 349.759 285.463 349.783 285.416 349.819C284.939 350.31 284.571 350.88 284.329 351.497Z" fill="#868CB7"/>
<path d="M284.117 351.899C284.093 351.899 284.069 351.895 284.048 351.886C284.026 351.877 284.007 351.863 283.992 351.846C283.992 351.785 283.03 350.5 283.232 349.731C283.255 349.638 283.298 349.549 283.359 349.471C283.42 349.393 283.498 349.327 283.588 349.277C283.67 349.217 283.772 349.185 283.877 349.185C283.981 349.185 284.083 349.217 284.165 349.277C284.637 349.653 284.492 351.217 284.213 351.785L284.165 351.829L284.117 351.899ZM283.472 349.749C283.47 350.353 283.668 350.944 284.04 351.444C284.27 350.791 284.236 350.084 283.944 349.452C283.944 349.452 283.838 349.355 283.703 349.452H283.646C283.55 349.528 283.489 349.634 283.472 349.749Z" fill="#868CB7"/>
<path d="M230.033 355.718L224.444 355.814C224.329 355.82 224.22 355.86 224.133 355.928C224.046 355.996 223.986 356.088 223.963 356.19L222.914 360.918C222.883 361.116 222.937 361.317 223.064 361.479C223.191 361.642 223.382 361.754 223.597 361.792C223.661 361.801 223.726 361.801 223.79 361.792C226.07 361.714 226.253 361.583 229.129 361.53C230.899 361.53 236.238 361.574 238.682 361.53C241.125 361.486 241.394 359.284 240.394 359.1C235.882 358.296 232.486 357.125 231.024 355.98C230.743 355.781 230.388 355.687 230.033 355.718Z" fill="#263238"/>
<path d="M230.534 356.277C230.506 356.274 230.48 356.261 230.461 356.242C230.441 356.223 230.43 356.198 230.428 356.173C230.42 356.149 230.422 356.124 230.433 356.102C230.443 356.08 230.462 356.061 230.486 356.05C230.688 355.928 232.544 354.844 233.198 355.132C233.273 355.163 233.336 355.212 233.38 355.274C233.425 355.336 233.448 355.408 233.449 355.482C233.468 355.607 233.452 355.733 233.403 355.851C233.355 355.968 233.274 356.073 233.17 356.155C232.846 356.367 232.451 356.469 232.054 356.443C231.542 356.441 231.032 356.385 230.534 356.277ZM230.928 356.094C231.611 356.292 232.351 356.245 232.996 355.963C233.064 355.906 233.116 355.835 233.146 355.755C233.176 355.676 233.184 355.591 233.17 355.508C233.17 355.412 233.112 355.368 233.083 355.368C233.023 355.356 232.96 355.356 232.9 355.368C232.199 355.495 231.529 355.741 230.928 356.094Z" fill="#868CB7"/>
<path d="M230.495 356.304C230.472 356.293 230.454 356.277 230.442 356.256C230.43 356.236 230.425 356.213 230.428 356.19C230.428 356.12 230.533 354.599 231.197 354.084C231.276 354.019 231.369 353.971 231.47 353.942C231.572 353.913 231.679 353.905 231.784 353.918C231.889 353.915 231.991 353.947 232.074 354.006C232.156 354.065 232.214 354.148 232.236 354.241C232.361 354.792 231.274 355.989 230.63 356.286H230.562C230.543 356.299 230.519 356.306 230.495 356.304ZM231.38 354.232C230.983 354.717 230.755 355.298 230.726 355.902C231.322 355.482 232.044 354.582 231.957 354.241C231.957 354.241 231.957 354.119 231.755 354.119H231.688C231.573 354.121 231.463 354.161 231.38 354.232Z" fill="#868CB7"/>
<path d="M199.393 272.601L179.028 280.371C170.61 261.361 159.163 252.219 159.163 252.219C167.32 243.331 182.385 239.24 182.385 239.24C184.61 240.885 186.53 242.845 188.071 245.044C189.769 247.432 191.249 249.943 192.496 252.551C195.522 259.01 197.832 265.726 199.393 272.601Z" fill="#868CB7"/>
<path d="M178.326 226.733C178.326 226.733 184.723 220.808 178.595 216.901C172.467 212.994 166.387 218.212 166.387 218.212C166.387 218.212 151.832 221.542 155.026 230.325C158.22 239.109 160.259 239.835 155.69 244.397C151.12 248.959 146.464 255.689 151.236 259.928C156.007 264.167 172.458 259.622 177.393 253.119C182.328 246.617 173.343 232.834 178.326 226.733Z" fill="#263238"/>
<path d="M197.912 266.902L175.786 273.798C175.786 273.798 180.683 295.692 184.232 299.354C187.782 303.016 211.515 319.971 214.872 318.634C218.23 317.297 240.5 299.354 240.5 299.354L202.818 275.878L197.912 266.902Z" fill="#263238"/>
<path d="M194.689 271.019L199.393 269.603L198.229 267.488L193.775 268.912L194.689 271.019Z" fill="black"/>
<path d="M180.625 273.116L175.805 274.655L176.45 276.525L181.164 275.1L180.625 273.116Z" fill="black"/>
<path d="M182.174 274.794L193.747 271.307L192.881 269.192L181.539 272.819L182.174 274.794Z" fill="black"/>
<path opacity="0.2" d="M192.496 252.586C187.628 252.07 184.887 245.419 184.887 245.419C185.94 245.248 187.003 245.134 188.071 245.078C189.769 247.467 191.249 249.978 192.496 252.586Z" fill="black"/>
<path d="M182.385 239.24C187.676 238.523 199.509 242.422 200.538 242.378C201.568 242.334 213.044 234.136 213.044 234.136L216.027 236.522C216.027 236.522 204.002 247.788 201.529 247.884C199.057 247.98 186.137 247.132 186.137 247.132C186.137 247.132 182.972 246.11 182.366 243.514C181.997 242.108 182.004 240.643 182.385 239.24Z" fill="#868CB7"/>
</svg>
